<?xml version="1.0" encoding="utf-8"?>
<!-- Generator: Adobe Illustrator 15.0.0, SVG Export Plug-In . SVG Version: 6.00 Build 0)  -->
<!DOCTYPE svg PUBLIC "-//W3C//DTD SVG 1.1//EN" "http://www.w3.org/Graphics/SVG/1.1/DTD/svg11.dtd">
<svg version="1.1" id="Layer_1" xmlns="http://www.w3.org/2000/svg" xmlns:xlink="http://www.w3.org/1999/xlink" x="0px" y="0px"
	 width="1920px" height="791px" viewBox="0 0 1920 791" enable-background="new 0 0 1920 791" xml:space="preserve">
<path fill-rule="evenodd" clip-rule="evenodd" fill="#4e11be" d="M1625,205c27.614,0,50,22.386,50,50s-22.386,50-50,50
	s-50-22.386-50-50S1597.386,205,1625,205z"/>
<path fill-rule="evenodd" clip-rule="evenodd" fill="#4e11be" d="M992,602c27.614,0,50,22.386,50,50s-22.386,50-50,50
	s-50-22.386-50-50S964.386,602,992,602z"/>
<path fill-rule="evenodd" clip-rule="evenodd" fill="#4e11be" d="M1242,624l188-204l468,371h-445L1242,624z"/>
<path fill-rule="evenodd" clip-rule="evenodd" fill="#4e11be" d="M1339,386c76.768,0,139,62.232,139,139s-62.232,139-139,139
	s-139-62.232-139-139S1262.232,386,1339,386z"/>
<path fill-rule="evenodd" clip-rule="evenodd" fill="#4e11be" d="M1026.5-188C1171.475-188,1289-70.475,1289,74.5
	S1171.475,337,1026.5,337S764,219.475,764,74.5S881.525-188,1026.5-188z"/>
<path fill-rule="evenodd" clip-rule="evenodd" fill="#4e11be" d="M125.869,275.001L394.98,620.928L63.131,879.023L-205.98,533.096
	L125.869,275.001z"/>
<path fill-rule="evenodd" clip-rule="evenodd" fill="#4e11be" d="M273,105c27.614,0,50,22.386,50,50s-22.386,50-50,50
	s-50-22.386-50-50S245.386,105,273,105z"/>
</svg>
