<?xml version="1.0" encoding="utf-8"?>
<!-- Generator: Adobe Illustrator 15.0.0, SVG Export Plug-In  -->
<!DOCTYPE svg PUBLIC "-//W3C//DTD SVG 1.1//EN" "http://www.w3.org/Graphics/SVG/1.1/DTD/svg11.dtd" [
	<!ENTITY ns_flows "http://ns.adobe.com/Flows/1.0/">
]>
<svg version="1.1"
	 xmlns="http://www.w3.org/2000/svg" xmlns:xlink="http://www.w3.org/1999/xlink" xmlns:a="http://ns.adobe.com/AdobeSVGViewerExtensions/3.0/"
	 x="0px" y="0px" width="1920px" height="995px" viewBox="16.007 14.994 1920 995" enable-background="new 16.007 14.994 1920 995"
	 xml:space="preserve">
<defs>
</defs>
<path fill="#4F17B3" d="M1672.502,189l231-189l347,133l-393,293L1672.502,189z"/>
<path fill="#4F17B3" d="M751,514.987l140,140l-368,358l-295,1L751,514.987z"/>
<path fill="#4F17B3" d="M817,489.987c54.676,0,99,44.324,99,99s-44.324,99-99,99s-99-44.324-99-99S762.324,489.987,817,489.987z"/>
<path fill="#430FA2" d="M312,725.987l134,136l-152,153H0L312,725.987z"/>
<path fill="#430FA2" d="M369,706.987c53.02,0,96,42.98,96,96s-42.98,96-96,96c-53.019,0-96-42.98-96-96S315.981,706.987,369,706.987
	z"/>
<path fill="#430FA2" d="M254.5,532.987c14.083,0,25.5,11.417,25.5,25.5s-11.417,25.5-25.5,25.5s-25.5-11.417-25.5-25.5
	S240.417,532.987,254.5,532.987z"/>
</svg>
