<?xml version="1.0" encoding="utf-8"?>
<!-- Generator: Adobe Illustrator 15.0.0, SVG Export Plug-In . SVG Version: 6.00 Build 0)  -->
<!DOCTYPE svg PUBLIC "-//W3C//DTD SVG 1.1//EN" "http://www.w3.org/Graphics/SVG/1.1/DTD/svg11.dtd">
<svg version="1.1" id="Layer_1" xmlns="http://www.w3.org/2000/svg" xmlns:xlink="http://www.w3.org/1999/xlink" x="0px" y="0px"
	 width="80px" height="80px" viewBox="0 0 200 200" enable-background="new 0 0 200 200" xml:space="preserve">
<g>
	<path fill="#fff" d="M77.714,56.253c-24.342,0-44.147,19.624-44.147,43.748s19.805,43.748,44.147,43.748
		c24.343,0,44.147-19.624,44.147-43.748S102.057,56.253,77.714,56.253z"/>
	<path class="line-anim1" fill="#fff" d="M166.858,131.342h-8.913c-2.228,0-4.032,1.786-4.032,3.995c0,2.206,1.804,3.994,4.032,3.994h8.913
		c2.229,0,4.032-1.788,4.032-3.994C170.89,133.128,169.086,131.342,166.858,131.342z"/>
	<path fill="#fff" d="M147.915,113.672h-14.359c1.093-4.382,1.676-8.959,1.676-13.67c0-7.991-1.67-15.6-4.677-22.507h13.072
		c2.227,0,4.03-1.79,4.03-3.997c0-2.206-1.804-3.995-4.03-3.995h-17.341c-4.853-7.56-11.453-13.92-19.235-18.514h6.32
		c2.227,0,4.032-1.786,4.032-3.994c0-2.204-1.805-3.994-4.032-3.994H77.714c-31.716,0-57.519,25.569-57.519,57
		c0,31.43,25.803,56.997,57.519,56.997h62.401c2.227,0,4.032-1.786,4.032-3.995c0-2.208-1.805-3.994-4.032-3.994h-33.064
		c4.52-2.666,8.644-5.926,12.256-9.678h20.234c2.228,0,4.032-1.788,4.032-3.994c0-2.209-1.804-3.995-4.032-3.995h-13.809
		c2.025-3.036,3.763-6.274,5.181-9.678h17.002c2.229,0,4.032-1.788,4.032-3.997C151.947,115.461,150.144,113.672,147.915,113.672z
		 M77.714,149.009c-27.271,0-49.455-21.985-49.455-49.008c0-27.024,22.184-49.013,49.455-49.013
		c27.269,0,49.455,21.989,49.455,49.013C127.169,127.026,104.983,149.009,77.714,149.009z"/>
	<path class="line-anim2" fill="#fff" d="M131.201,50.989h8.915c2.227,0,4.032-1.786,4.032-3.994c0-2.204-1.805-3.994-4.032-3.994h-8.915
		c-2.227,0-4.032,1.79-4.032,3.994C127.169,49.203,128.974,50.989,131.201,50.989z"/>
	<path class="line-anim3" fill="#fff" d="M158.89,77.495h8.915c2.227,0,4.032-1.79,4.032-3.997c0-2.206-1.805-3.995-4.032-3.995h-8.915
		c-2.227,0-4.032,1.789-4.032,3.995C154.858,75.705,156.663,77.495,158.89,77.495z"/>
	<path class="line-anim4" fill="#fff" d="M144.997,100.001c0,2.206,1.805,3.996,4.032,3.996h17.829c2.229,0,4.032-1.79,4.032-3.996
		s-1.804-3.997-4.032-3.997h-17.829C146.802,96.005,144.997,97.795,144.997,100.001z"/>
	<path class="line-anim5" fill="#fff" d="M175.773,113.672h-8.915c-2.227,0-4.032,1.79-4.032,3.995c0,2.209,1.805,3.997,4.032,3.997h8.915
		c2.227,0,4.032-1.788,4.032-3.997C179.805,115.461,178,113.672,175.773,113.672z"/>
</g>
<g>
	<path class="rotate-anim" fill="#490fb4" d="M98.699,117.443c-5.055,4.985-11.584,7.301-18.675,7.301c-18.253,0-25.976-12.566-26.046-25.344
		c-0.07-12.847,8.284-25.906,26.046-25.906c6.67,0,12.988,2.527,18.043,7.512l-6.178,5.967c-3.229-3.159-7.583-4.633-11.865-4.633
		c-11.865,0-16.99,8.846-16.919,17.06c0.07,8.144,4.774,16.639,16.919,16.639c4.283,0,9.127-1.755,12.356-4.985L98.699,117.443z"/>
</g>
<style>
	.line-anim1{ animation: moveline 1.5s infinite;opacity: 0; }
	.line-anim2{ animation: moveline 1.5s infinite;opacity: 0; }
	.line-anim3{ animation: moveline 1.5s infinite;opacity: 0; }
	.line-anim4{ animation: moveline 1.5s infinite;opacity: 0; }
	.line-anim5{ animation: moveline 1.5s infinite;opacity: 0; }
	@keyframes moveline {
	  0% {
	    transform: translateX(0px);
	    opacity: 0;
	  }
	  25% {
	    opacity: 1;
	  }
	  50%{
	  	transform: translateX(70px);
	    opacity: 0;
	  }
	  75%{
	  	opacity: 0;	
	  }
	  100% {
	    transform: translateX(0px);
	    opacity: 0;
	  }
	}
	.rotate-anim{ animation: rotateitem 1.5s infinite; }
	@keyframes rotateitem {
	  0% {
	   opacity:0;
	  }
	  50%{
	  	opacity:1;	
	  }
	  100% {
	    opacity:0;
	  }
	}
</style>

</svg>
